<?xml version="1.0" encoding="UTF-8" standalone="no"?>
<!DOCTYPE svg PUBLIC "-//W3C//DTD SVG 1.1//EN" "http://www.w3.org/Graphics/SVG/1.1/DTD/svg11.dtd">
<svg width="100%" height="100%" viewBox="0 0 512 512" version="1.1" xmlns="http://www.w3.org/2000/svg" xmlns:xlink="http://www.w3.org/1999/xlink" xml:space="preserve" xmlns:serif="http://www.serif.com/" style="fill-rule:evenodd;clip-rule:evenodd;stroke-miterlimit:10;">
    <path d="M448,256C448,150 362,64 256,64C150,64 64,150 64,256C64,362 150,448 256,448C362,448 448,362 448,256Z" style="fill:none;fill-rule:nonzero;stroke:rgb(223,22,22);stroke-width:32px;"/>
    <path d="M250.26,166.05L256,288L261.73,166.05C261.734,165.963 261.736,165.877 261.736,165.79C261.736,162.641 259.145,160.05 255.996,160.05C255.977,160.05 255.959,160.05 255.94,160.05C252.812,160.079 250.254,162.661 250.254,165.79C250.254,165.877 250.256,165.963 250.26,166.05Z" style="fill:none;fill-rule:nonzero;stroke:rgb(223,22,22);stroke-width:32px;stroke-linecap:round;stroke-linejoin:round;stroke-miterlimit:4;"/>
    <path d="M256,367.91C245.028,367.91 236,358.882 236,347.91C236,336.938 245.028,327.91 256,327.91C266.972,327.91 276,336.938 276,347.91C276,358.882 266.972,367.91 256,367.91Z" style="fill:rgb(219,0,0);fill-rule:nonzero;stroke:rgb(223,22,22);stroke-width:1px;stroke-linejoin:round;stroke-miterlimit:2;"/>
</svg>
