<svg width="68" height="27" viewBox="0 0 68 27" fill="none" xmlns="http://www.w3.org/2000/svg">
<path fill-rule="evenodd" clip-rule="evenodd" d="M10.3754 6.37528C10.8716 6.59975 11.3844 6.83514 11.4928 6.87855C11.6983 6.96076 11.6274 7.53843 11.4368 7.81838C11.2463 8.09833 9.83757 8.93476 9.38538 9.07688C8.93319 9.21899 8.58113 9.17465 8.23402 9.0364C7.88691 8.89815 6.99645 8.0227 6.86691 7.81838C6.73737 7.61406 6.73913 7.26257 6.86691 7.09348C6.99469 6.92438 8.26174 5.99719 8.45505 5.918C8.64836 5.83881 9.13945 5.86352 9.38538 5.94441C9.48411 5.97688 9.81009 6.12058 10.1783 6.28628C10.0035 6.15975 9.88613 5.92523 9.88613 5.65683C9.88613 5.25421 10.1502 4.92783 10.476 4.92783C10.8018 4.92783 11.0659 5.25421 11.0659 5.65683C11.0659 6.05945 10.8018 6.38583 10.476 6.38583C10.4417 6.38583 10.4081 6.38222 10.3754 6.37528ZM6.98127 8.21815C6.86341 8.0387 6.77525 7.89917 6.74006 7.84398C6.60281 7.62868 6.60467 7.25832 6.74006 7.08014C6.78508 7.02089 6.96358 6.87331 7.18933 6.69963C6.93512 6.46785 6.76333 6.02553 6.76333 5.51797C6.76333 4.77025 7.13616 4.16411 7.59608 4.16411C8.05599 4.16411 8.42882 4.77025 8.42882 5.51797C8.42882 5.63263 8.42005 5.74396 8.40355 5.85029C8.41077 5.84673 8.41719 5.84379 8.42277 5.84152C8.61698 5.7624 9.09483 5.78171 9.36597 5.85658C9.34312 5.74835 9.33096 5.63489 9.33096 5.51797C9.33096 4.77025 9.82808 4.16411 10.4413 4.16411C11.0545 4.16411 11.5516 4.77025 11.5516 5.51797C11.5516 5.96717 11.3722 6.36528 11.096 6.61156C11.3639 6.73251 11.5748 6.82713 11.6415 6.85366C11.8592 6.94029 11.784 7.54899 11.5821 7.84398C11.5617 7.87384 11.528 7.91561 11.4835 7.96673C11.5788 8.17993 12.1305 9.42126 12.6351 10.7164C13.1897 12.1398 13.7108 12.7432 13.8352 13.8337C13.9918 15.2079 14.0026 16.1594 13.9566 16.7997C14.429 17.0974 14.0389 18.0901 14.9713 18.1181C16.0295 18.1499 16.5818 16.851 17.2112 16.8731C17.3507 16.4909 17.5206 15.8318 17.4216 15.0587C17.2643 13.8307 16.2633 12.0313 16.2633 12.0313C16.2633 12.0313 14.2196 9.01303 13.7889 8.17505C13.3582 7.33707 13.3609 6.82006 13.2597 6.18765C13.1586 5.55523 13.2597 5.58211 13.2597 4.86633C13.2597 4.15055 13.0287 3.60481 13.0287 3.60481C13.0287 3.60481 12.2448 0.916887 9.43167 1.00198C6.61851 1.08707 6.39297 3.60481 6.39297 3.60481C6.39297 3.60481 6.39748 8.39127 6.39748 8.80848C6.39748 9.22569 6.2555 9.17025 5.94142 9.65353C5.62735 10.1368 4.83078 11.0458 4.36417 11.9349C4.04254 12.5476 3.86945 13.0713 3.5201 13.9618C3.17075 14.8523 2.68227 15.4085 2.68227 15.9297C2.68227 16.1894 2.75073 16.3753 2.81941 16.5075C3.00874 16.2719 3.23217 16.1059 3.57906 16.1059C4.10427 16.1059 5.3693 18.0928 6.39748 19.7178C6.467 19.8277 6.53588 19.935 6.60356 20.0393C6.76253 20.0694 7.30307 20.1246 7.30307 19.4809C7.30307 18.7262 4.43536 16.72 4.43536 16.72C4.43536 16.72 4.28728 15.3274 4.62016 14.3018C4.95305 13.2761 5.5794 12.2981 5.5794 12.2981C5.5794 12.2981 5.807 11.3131 6.19346 10.4805C6.57991 9.64797 6.9437 9.43212 6.9437 9.43212L6.98127 8.21815ZM7.46425 21.3192C7.61386 21.5381 7.71322 21.6867 7.73747 21.7423C7.87193 22.0509 7.78884 22.4828 7.61749 22.785C8.30735 22.6462 9.16374 22.52 9.99732 22.52C10.7637 22.52 11.6468 22.6267 12.4188 22.7517C12.3293 22.1125 12.3965 21.2714 12.5034 20.3495C12.5218 20.1904 12.5381 20.0443 12.5526 19.9094C12.0653 20.4381 11.4192 20.9104 10.5788 21.1423C8.66406 21.6706 7.71631 21.4137 7.46425 21.3192ZM6.00384 23.6622C5.42672 23.7599 5.31138 23.5495 3.53474 23.021C2.65262 22.7585 1.50037 22.6347 0.968866 22.4605C0.437364 22.2863 0.112196 22.1242 0.0117626 21.8665C-0.0379775 21.7389 0.0843903 21.3203 0.112196 20.4246C0.140003 19.529 0.000876413 18.8451 0.112196 18.6315C0.418987 18.0431 1.2354 18.3786 1.92353 17.8384C2.61166 17.2982 2.70416 16.3177 3.53474 16.3177C4.03841 16.3177 5.25157 18.2003 6.23758 19.74C6.87754 20.7393 7.46012 21.5165 7.52261 21.6582C7.6814 22.0182 7.52383 22.5554 7.28142 22.8221C7.03901 23.0888 6.54118 23.5713 6.00384 23.6622ZM7.00045 7.69254C6.97995 7.7184 7.80882 8.34186 8.65973 8.23509C9.62179 8.11437 11.1125 7.09957 11.0211 6.9961C10.9563 6.9228 9.52373 8.05326 8.61791 8.11437C7.7121 8.17547 7.02095 7.66667 7.00045 7.69254ZM12.7013 20.3072C12.9024 18.4798 12.8123 18.4996 12.8697 17.3827C12.8697 17.3827 12.8214 16.7772 13.656 16.8243C14.4906 16.8713 13.6552 18.1665 14.8692 18.2703C16.0833 18.3742 16.4131 17.0495 16.9988 17.1194C17.5845 17.1893 17.1068 17.7458 17.412 18.5251C17.6749 19.1968 19.14 19.6794 18.9891 20.323C18.8383 20.9667 18.3438 20.8703 16.8078 22.0441C15.2719 23.2179 15.6866 23.7169 13.6447 23.6544C12.4639 23.6183 12.5002 22.1346 12.7013 20.3072ZM7.59608 6.38583C7.86436 6.38583 8.08184 6.07499 8.08184 5.69154C8.08184 5.3081 7.86436 4.99726 7.59608 4.99726C7.32779 4.99726 7.11031 5.3081 7.11031 5.69154C7.11031 6.07499 7.32779 6.38583 7.59608 6.38583ZM7.79491 5.88698C7.92443 5.88698 7.89714 5.60088 7.79491 5.41388C7.69268 5.22688 7.5199 5.15106 7.47245 5.24182C7.42198 5.33835 7.57173 5.59736 7.57173 5.59736C7.57173 5.59736 7.66539 5.88698 7.79491 5.88698ZM10.745 5.60215C10.8149 5.57946 10.8394 5.47189 10.745 5.3008C10.6506 5.12972 10.5103 5.09157 10.4565 5.17239C10.4079 5.24527 10.5461 5.41654 10.5461 5.41654C10.5461 5.41654 10.6751 5.62483 10.745 5.60215Z" fill="black"/>
<path d="M27.024 18.668H31.416V20H25.386V7.454H27.024V18.668ZM34.0015 8.534C33.6895 8.534 33.4255 8.426 33.2095 8.21C32.9935 7.994 32.8855 7.73 32.8855 7.418C32.8855 7.106 32.9935 6.842 33.2095 6.626C33.4255 6.41 33.6895 6.302 34.0015 6.302C34.3015 6.302 34.5535 6.41 34.7575 6.626C34.9735 6.842 35.0815 7.106 35.0815 7.418C35.0815 7.73 34.9735 7.994 34.7575 8.21C34.5535 8.426 34.3015 8.534 34.0015 8.534ZM34.7935 10.136V20H33.1555V10.136H34.7935ZM42.3912 9.956C43.5912 9.956 44.5632 10.322 45.3072 11.054C46.0512 11.774 46.4232 12.818 46.4232 14.186V20H44.8032V14.42C44.8032 13.436 44.5572 12.686 44.0652 12.17C43.5732 11.642 42.9012 11.378 42.0492 11.378C41.1852 11.378 40.4952 11.648 39.9792 12.188C39.4752 12.728 39.2232 13.514 39.2232 14.546V20H37.5852V10.136H39.2232V11.54C39.5472 11.036 39.9852 10.646 40.5372 10.37C41.1012 10.094 41.7192 9.956 42.3912 9.956ZM57.8469 10.136V20H56.2089V18.542C55.8969 19.046 55.4589 19.442 54.8949 19.73C54.3429 20.006 53.7309 20.144 53.0589 20.144C52.2909 20.144 51.6009 19.988 50.9889 19.676C50.3769 19.352 49.8909 18.872 49.5309 18.236C49.1829 17.6 49.0089 16.826 49.0089 15.914V10.136H50.6289V15.698C50.6289 16.67 50.8749 17.42 51.3669 17.948C51.8589 18.464 52.5309 18.722 53.3829 18.722C54.2589 18.722 54.9489 18.452 55.4529 17.912C55.9569 17.372 56.2089 16.586 56.2089 15.554V10.136H57.8469ZM65.7606 20L63.4206 16.328L61.1706 20H59.4606L62.6466 15.104L59.4606 10.136H61.3146L63.6546 13.79L65.8866 10.136H67.5966L64.4286 15.014L67.6146 20H65.7606Z" fill="black"/>
</svg>
