<svg width="94" height="27" viewBox="0 0 94 27" fill="none" xmlns="http://www.w3.org/2000/svg">
<path d="M0.496278 5.60776H19.5037C19.7519 5.60776 20 5.8559 20 6.10404V20.7442C20 21.042 19.7519 21.2405 19.5037 21.2405H0.496278C0.198511 21.2405 0 21.042 0 20.7442V6.10404C0 5.8559 0.198511 5.60776 0.496278 5.60776ZM19.0074 6.60032H0.992556V20.248H19.0074V6.60032Z" fill="black"/>
<path d="M12.6055 3.176C12.7543 2.97749 13.1017 2.92786 13.3002 3.12637C13.4988 3.27526 13.4988 3.57302 13.3499 3.82116C11.861 5.55813 10.7692 7.34473 9.97518 9.13133C9.28039 10.7194 8.88337 12.3571 8.78411 13.9949H11.7122C12.0099 13.9949 12.2084 14.1934 12.2084 14.4911C12.2084 14.4911 12.2084 14.5408 12.2084 14.5904C11.861 16.3274 11.7618 17.8658 11.9107 19.305C12.0595 20.7442 12.4566 21.9849 13.1017 23.0767C13.2506 23.3249 13.1514 23.6226 12.9032 23.7715C12.7047 23.9204 12.3573 23.8212 12.2581 23.573C11.5136 22.3323 11.067 20.9427 10.9181 19.4043C10.7692 18.0643 10.8685 16.5755 11.1166 14.9874H8.23821C7.94044 14.9874 7.74193 14.7393 7.74193 14.4415C7.79156 12.506 8.23821 10.6202 9.08188 8.73431C9.87592 6.84846 11.067 5.01223 12.6055 3.176Z" fill="black"/>
<path d="M3.72207 16.9725C3.47393 16.8236 3.37468 16.5259 3.47393 16.2777C3.62282 16.0792 3.92058 15.9303 4.16872 16.0792C6.05458 17.0222 8.03969 17.5184 10.0248 17.5184C12.0099 17.5184 13.995 17.0222 16.0794 16.0792C16.3275 15.98 16.6253 16.0792 16.7246 16.3274C16.8734 16.5755 16.7246 16.8733 16.4764 16.9725C14.2928 17.9651 12.1588 18.511 10.0248 18.511C7.89081 18.511 5.75681 17.9651 3.72207 16.9725Z" fill="black"/>
<path d="M13.6476 8.58544C13.6476 8.3373 13.8958 8.08916 14.1439 8.08916C14.4417 8.08916 14.6402 8.3373 14.6402 8.58544V10.5706C14.6402 10.8683 14.4417 11.0668 14.1439 11.0668C13.8958 11.0668 13.6476 10.8683 13.6476 10.5706V8.58544Z" fill="black"/>
<path d="M5.3598 8.58544C5.3598 8.3373 5.55831 8.08916 5.85608 8.08916C6.10422 8.08916 6.35236 8.3373 6.35236 8.58544V10.5706C6.35236 10.8683 6.10422 11.0668 5.85608 11.0668C5.55831 11.0668 5.3598 10.8683 5.3598 10.5706V8.58544Z" fill="black"/>
<path d="M39.112 7.544V20H37.474V10.712L33.334 20H32.182L28.024 10.694V20H26.386V7.544H28.15L32.758 17.84L37.366 7.544H39.112ZM41.2779 15.032C41.2779 14.024 41.4819 13.142 41.8899 12.386C42.2979 11.618 42.8559 11.024 43.5639 10.604C44.2839 10.184 45.0819 9.974 45.9579 9.974C46.8219 9.974 47.5719 10.16 48.2079 10.532C48.8439 10.904 49.3179 11.372 49.6299 11.936V10.136H51.2859V20H49.6299V18.164C49.3059 18.74 48.8199 19.22 48.1719 19.604C47.5359 19.976 46.7919 20.162 45.9399 20.162C45.0639 20.162 44.2719 19.946 43.5639 19.514C42.8559 19.082 42.2979 18.476 41.8899 17.696C41.4819 16.916 41.2779 16.028 41.2779 15.032ZM49.6299 15.05C49.6299 14.306 49.4799 13.658 49.1799 13.106C48.8799 12.554 48.4719 12.134 47.9559 11.846C47.4519 11.546 46.8939 11.396 46.2819 11.396C45.6699 11.396 45.1119 11.54 44.6079 11.828C44.1039 12.116 43.7019 12.536 43.4019 13.088C43.1019 13.64 42.9519 14.288 42.9519 15.032C42.9519 15.788 43.1019 16.448 43.4019 17.012C43.7019 17.564 44.1039 17.99 44.6079 18.29C45.1119 18.578 45.6699 18.722 46.2819 18.722C46.8939 18.722 47.4519 18.578 47.9559 18.29C48.4719 17.99 48.8799 17.564 49.1799 17.012C49.4799 16.448 49.6299 15.794 49.6299 15.05ZM53.442 15.05C53.442 14.03 53.646 13.142 54.054 12.386C54.462 11.618 55.026 11.024 55.746 10.604C56.478 10.184 57.312 9.974 58.248 9.974C59.46 9.974 60.456 10.268 61.236 10.856C62.028 11.444 62.55 12.26 62.802 13.304H61.038C60.87 12.704 60.54 12.23 60.048 11.882C59.568 11.534 58.968 11.36 58.248 11.36C57.312 11.36 56.556 11.684 55.98 12.332C55.404 12.968 55.116 13.874 55.116 15.05C55.116 16.238 55.404 17.156 55.98 17.804C56.556 18.452 57.312 18.776 58.248 18.776C58.968 18.776 59.568 18.608 60.048 18.272C60.528 17.936 60.858 17.456 61.038 16.832H62.802C62.538 17.84 62.01 18.65 61.218 19.262C60.426 19.862 59.436 20.162 58.248 20.162C57.312 20.162 56.478 19.952 55.746 19.532C55.026 19.112 54.462 18.518 54.054 17.75C53.646 16.982 53.442 16.082 53.442 15.05ZM75.4744 20.126C74.3104 20.126 73.2484 19.856 72.2884 19.316C71.3284 18.764 70.5664 18.002 70.0024 17.03C69.4504 16.046 69.1744 14.942 69.1744 13.718C69.1744 12.494 69.4504 11.396 70.0024 10.424C70.5664 9.44 71.3284 8.678 72.2884 8.138C73.2484 7.586 74.3104 7.31 75.4744 7.31C76.6504 7.31 77.7184 7.586 78.6784 8.138C79.6384 8.678 80.3944 9.434 80.9464 10.406C81.4984 11.378 81.7744 12.482 81.7744 13.718C81.7744 14.954 81.4984 16.058 80.9464 17.03C80.3944 18.002 79.6384 18.764 78.6784 19.316C77.7184 19.856 76.6504 20.126 75.4744 20.126ZM75.4744 18.704C76.3504 18.704 77.1364 18.5 77.8324 18.092C78.5404 17.684 79.0924 17.102 79.4884 16.346C79.8964 15.59 80.1004 14.714 80.1004 13.718C80.1004 12.71 79.8964 11.834 79.4884 11.09C79.0924 10.334 78.5464 9.752 77.8504 9.344C77.1544 8.936 76.3624 8.732 75.4744 8.732C74.5864 8.732 73.7944 8.936 73.0984 9.344C72.4024 9.752 71.8504 10.334 71.4424 11.09C71.0464 11.834 70.8484 12.71 70.8484 13.718C70.8484 14.714 71.0464 15.59 71.4424 16.346C71.8504 17.102 72.4024 17.684 73.0984 18.092C73.8064 18.5 74.5984 18.704 75.4744 18.704ZM87.9148 20.126C87.0868 20.126 86.3428 19.982 85.6828 19.694C85.0348 19.394 84.5248 18.986 84.1528 18.47C83.7808 17.942 83.5888 17.336 83.5768 16.652H85.3228C85.3828 17.24 85.6228 17.738 86.0428 18.146C86.4748 18.542 87.0988 18.74 87.9148 18.74C88.6948 18.74 89.3068 18.548 89.7508 18.164C90.2068 17.768 90.4348 17.264 90.4348 16.652C90.4348 16.172 90.3028 15.782 90.0388 15.482C89.7748 15.182 89.4448 14.954 89.0488 14.798C88.6528 14.642 88.1188 14.474 87.4468 14.294C86.6188 14.078 85.9528 13.862 85.4488 13.646C84.9568 13.43 84.5308 13.094 84.1708 12.638C83.8228 12.17 83.6488 11.546 83.6488 10.766C83.6488 10.082 83.8228 9.476 84.1708 8.948C84.5188 8.42 85.0048 8.012 85.6288 7.724C86.2648 7.436 86.9908 7.292 87.8068 7.292C88.9828 7.292 89.9428 7.586 90.6868 8.174C91.4428 8.762 91.8688 9.542 91.9648 10.514H90.1648C90.1048 10.034 89.8528 9.614 89.4088 9.254C88.9648 8.882 88.3768 8.696 87.6448 8.696C86.9608 8.696 86.4028 8.876 85.9708 9.236C85.5388 9.584 85.3228 10.076 85.3228 10.712C85.3228 11.168 85.4488 11.54 85.7008 11.828C85.9648 12.116 86.2828 12.338 86.6548 12.494C87.0388 12.638 87.5728 12.806 88.2568 12.998C89.0848 13.226 89.7508 13.454 90.2548 13.682C90.7588 13.898 91.1908 14.24 91.5508 14.708C91.9108 15.164 92.0908 15.788 92.0908 16.58C92.0908 17.192 91.9288 17.768 91.6048 18.308C91.2808 18.848 90.8008 19.286 90.1648 19.622C89.5288 19.958 88.7788 20.126 87.9148 20.126Z" fill="black"/>
</svg>
