<svg width="108" height="27" viewBox="0 0 108 27" fill="none" xmlns="http://www.w3.org/2000/svg">
<path d="M1.3282 20.3555L8.32589 21.369V14.674H1.3282V20.3555ZM1.3282 13.7176H8.32589V7.02189L1.3282 8.03542V13.7176ZM9.28227 21.5076L18.6718 22.8676V14.674H9.28227V21.5076ZM9.28227 6.8829V13.7176H18.6718V5.52364L9.28227 6.8829Z" fill="black"/>
<path d="M43.154 7.454L39.518 20H37.682L34.766 9.902L31.742 20L29.924 20.018L26.414 7.454H28.16L30.896 18.092L33.92 7.454H35.756L38.636 18.056L41.39 7.454H43.154ZM45.7925 8.534C45.4805 8.534 45.2165 8.426 45.0005 8.21C44.7845 7.994 44.6765 7.73 44.6765 7.418C44.6765 7.106 44.7845 6.842 45.0005 6.626C45.2165 6.41 45.4805 6.302 45.7925 6.302C46.0925 6.302 46.3445 6.41 46.5485 6.626C46.7645 6.842 46.8725 7.106 46.8725 7.418C46.8725 7.73 46.7645 7.994 46.5485 8.21C46.3445 8.426 46.0925 8.534 45.7925 8.534ZM46.5845 10.136V20H44.9465V10.136H46.5845ZM54.1822 9.956C55.3822 9.956 56.3542 10.322 57.0982 11.054C57.8422 11.774 58.2142 12.818 58.2142 14.186V20H56.5942V14.42C56.5942 13.436 56.3482 12.686 55.8562 12.17C55.3642 11.642 54.6922 11.378 53.8402 11.378C52.9762 11.378 52.2862 11.648 51.7702 12.188C51.2662 12.728 51.0142 13.514 51.0142 14.546V20H49.3762V10.136H51.0142V11.54C51.3382 11.036 51.7762 10.646 52.3282 10.37C52.8922 10.094 53.5102 9.956 54.1822 9.956ZM60.2779 15.032C60.2779 14.024 60.4819 13.142 60.8899 12.386C61.2979 11.618 61.8559 11.024 62.5639 10.604C63.2839 10.184 64.0879 9.974 64.9759 9.974C65.7439 9.974 66.4579 10.154 67.1179 10.514C67.7779 10.862 68.2819 11.324 68.6299 11.9V6.68H70.2859V20H68.6299V18.146C68.3059 18.734 67.8259 19.22 67.1899 19.604C66.5539 19.976 65.8099 20.162 64.9579 20.162C64.0819 20.162 63.2839 19.946 62.5639 19.514C61.8559 19.082 61.2979 18.476 60.8899 17.696C60.4819 16.916 60.2779 16.028 60.2779 15.032ZM68.6299 15.05C68.6299 14.306 68.4799 13.658 68.1799 13.106C67.8799 12.554 67.4719 12.134 66.9559 11.846C66.4519 11.546 65.8939 11.396 65.2819 11.396C64.6699 11.396 64.1119 11.54 63.6079 11.828C63.1039 12.116 62.7019 12.536 62.4019 13.088C62.1019 13.64 61.9519 14.288 61.9519 15.032C61.9519 15.788 62.1019 16.448 62.4019 17.012C62.7019 17.564 63.1039 17.99 63.6079 18.29C64.1119 18.578 64.6699 18.722 65.2819 18.722C65.8939 18.722 66.4519 18.578 66.9559 18.29C67.4719 17.99 67.8799 17.564 68.1799 17.012C68.4799 16.448 68.6299 15.794 68.6299 15.05ZM77.356 20.162C76.432 20.162 75.592 19.952 74.836 19.532C74.092 19.112 73.504 18.518 73.072 17.75C72.652 16.97 72.442 16.07 72.442 15.05C72.442 14.042 72.658 13.154 73.09 12.386C73.534 11.606 74.134 11.012 74.89 10.604C75.646 10.184 76.492 9.974 77.428 9.974C78.364 9.974 79.21 10.184 79.966 10.604C80.722 11.012 81.316 11.6 81.748 12.368C82.192 13.136 82.414 14.03 82.414 15.05C82.414 16.07 82.186 16.97 81.73 17.75C81.286 18.518 80.68 19.112 79.912 19.532C79.144 19.952 78.292 20.162 77.356 20.162ZM77.356 18.722C77.944 18.722 78.496 18.584 79.012 18.308C79.528 18.032 79.942 17.618 80.254 17.066C80.578 16.514 80.74 15.842 80.74 15.05C80.74 14.258 80.584 13.586 80.272 13.034C79.96 12.482 79.552 12.074 79.048 11.81C78.544 11.534 77.998 11.396 77.41 11.396C76.81 11.396 76.258 11.534 75.754 11.81C75.262 12.074 74.866 12.482 74.566 13.034C74.266 13.586 74.116 14.258 74.116 15.05C74.116 15.854 74.26 16.532 74.548 17.084C74.848 17.636 75.244 18.05 75.736 18.326C76.228 18.59 76.768 18.722 77.356 18.722ZM97.7076 10.136L94.6296 20H92.9376L90.5616 12.17L88.1856 20H86.4936L83.3976 10.136H85.0716L87.3396 18.416L89.7876 10.136H91.4616L93.8556 18.434L96.0876 10.136H97.7076ZM102.825 20.162C102.069 20.162 101.391 20.036 100.791 19.784C100.191 19.52 99.7173 19.16 99.3693 18.704C99.0213 18.236 98.8293 17.702 98.7933 17.102H100.485C100.533 17.594 100.761 17.996 101.169 18.308C101.589 18.62 102.135 18.776 102.807 18.776C103.431 18.776 103.923 18.638 104.283 18.362C104.643 18.086 104.823 17.738 104.823 17.318C104.823 16.886 104.631 16.568 104.247 16.364C103.863 16.148 103.269 15.938 102.465 15.734C101.733 15.542 101.133 15.35 100.665 15.158C100.209 14.954 99.8133 14.66 99.4773 14.276C99.1533 13.88 98.9913 13.364 98.9913 12.728C98.9913 12.224 99.1413 11.762 99.4413 11.342C99.7413 10.922 100.167 10.592 100.719 10.352C101.271 10.1 101.901 9.974 102.609 9.974C103.701 9.974 104.583 10.25 105.255 10.802C105.927 11.354 106.287 12.11 106.335 13.07H104.697C104.661 12.554 104.451 12.14 104.067 11.828C103.695 11.516 103.191 11.36 102.555 11.36C101.967 11.36 101.499 11.486 101.151 11.738C100.803 11.99 100.629 12.32 100.629 12.728C100.629 13.052 100.731 13.322 100.935 13.538C101.151 13.742 101.415 13.91 101.727 14.042C102.051 14.162 102.495 14.3 103.059 14.456C103.767 14.648 104.343 14.84 104.787 15.032C105.231 15.212 105.609 15.488 105.921 15.86C106.245 16.232 106.413 16.718 106.425 17.318C106.425 17.858 106.275 18.344 105.975 18.776C105.675 19.208 105.249 19.55 104.697 19.802C104.157 20.042 103.533 20.162 102.825 20.162Z" fill="black"/>
</svg>
